<svg width="895" height="345.73807" xmlns="http://www.w3.org/2000/svg">
  <metadata id="metadata155">image/svg+xml</metadata>

  <clipPath id="g570d42e557_0_198.0">
    <path d="m0,0l960,0l0,540l-960,0l0,-540z" id="path2" clip-rule="nonzero"/>
  </clipPath>
  <g>
    <title>background</title>
    <rect x="-1" y="-1" width="897" height="347.73807" id="canvas_background" fill="none"/>
  </g>
  <g>
    <title>Layer 1</title>
    <path stroke="null" id="path11" d="m0,290.21051l895.200195,0l0,55.527557l-895.200195,0l0,-55.527557z" fill-rule="evenodd" fill="#ff004a"/>
    <path id="path13" d="m376.383972,312.222412q-2.5,0 -3.9375,1.609375q-1.4375,1.59375 -1.4375,4.390625q0,2.84375 1.359375,4.421875q1.359375,1.578125 3.875,1.578125q1.671875,0 3.078125,-0.4375l0,0.828125q-1.3125,0.46875 -3.296875,0.46875q-2.796875,0 -4.421875,-1.8125q-1.609375,-1.8125 -1.609375,-5.078125q0,-2.03125 0.765625,-3.578125q0.78125,-1.546875 2.21875,-2.390625q1.453125,-0.84375 3.359375,-0.84375q1.953125,0 3.484375,0.734375l-0.375,0.84375q-1.453125,-0.734375 -3.0625,-0.734375zm13.86853,7.703125q0,2.421875 -1.171875,3.796875q-1.171875,1.359375 -3.25,1.359375q-1.296875,0 -2.296875,-0.625q-0.984375,-0.640625 -1.515625,-1.8125q-0.53125,-1.171875 -0.53125,-2.71875q0,-2.421875 1.171875,-3.765625q1.1875,-1.359375 3.234375,-1.359375q2.046875,0 3.203125,1.375q1.15625,1.375 1.15625,3.75zm-7.8125,0q0,2.046875 0.890625,3.1875q0.90625,1.140625 2.546875,1.140625q1.640625,0 2.53125,-1.140625q0.90625,-1.140625 0.90625,-3.1875q0,-2.046875 -0.90625,-3.171875q-0.90625,-1.140625 -2.546875,-1.140625q-1.640625,0 -2.53125,1.140625q-0.890625,1.125 -0.890625,3.171875zm17.462646,4.96875l0,-6.421875q0,-1.5 -0.625,-2.171875q-0.625,-0.6875 -1.953125,-0.6875q-1.78125,0 -2.609375,0.90625q-0.8125,0.890625 -0.8125,2.90625l0,5.46875l-0.90625,0l0,-9.90625l0.765625,0l0.171875,1.359375l0.0625,0q0.953125,-1.546875 3.421875,-1.546875q3.375,0 3.375,3.609375l0,6.484375l-0.890625,0zm6.707397,-0.625q0.859375,0 1.5,-0.140625l0,0.734375q-0.65625,0.21875 -1.515625,0.21875q-1.3125,0 -1.9375,-0.703125q-0.625,-0.703125 -0.625,-2.203125l0,-6.40625l-1.453125,0l0,-0.515625l1.453125,-0.421875l0.46875,-2.234375l0.453125,0l0,2.390625l2.90625,0l0,0.78125l-2.90625,0l0,6.28125q0,1.125 0.40625,1.671875q0.40625,0.546875 1.25,0.546875zm9.655365,0.625l-0.234375,-1.5625l-0.0625,0q-0.75,0.953125 -1.546875,1.359375q-0.78125,0.390625 -1.859375,0.390625q-1.453125,0 -2.265625,-0.75q-0.8125,-0.75 -0.8125,-2.0625q0,-1.453125 1.203125,-2.25q1.21875,-0.8125 3.5,-0.859375l1.890625,-0.046906l0,-0.65625q0,-1.421875 -0.578125,-2.140625q-0.578125,-0.71875 -1.84375,-0.71875q-1.375,0 -2.859375,0.765625l-0.328125,-0.78125q1.625,-0.765625 3.21875,-0.765625q1.625,0 2.421875,0.859375q0.8125,0.84375 0.8125,2.625l0,6.59375l-0.65625,0.000031zm-3.640625,-0.640625q1.578125,0 2.484375,-0.90625q0.921875,-0.90625 0.921875,-2.515625l0,-0.96875l-1.71875,0.0625q-2.09375,0.109375 -2.984375,0.65625q-0.890625,0.546875 -0.890625,1.71875q0,0.921875 0.5625,1.4375q0.578125,0.515625 1.625,0.515625zm8.41507,0.640625l-0.90625,0l0,-9.90625l0.90625,0l0,9.90625zm-1.03125,-12.65625q0,-0.875 0.578125,-0.875q0.28125,0 0.4375,0.234375q0.15625,0.21875 0.15625,0.640625q0,0.40625 -0.15625,0.65625q-0.15625,0.234375 -0.4375,0.234375q-0.578125,0 -0.578125,-0.890625zm11.248932,12.65625l0,-6.421875q0,-1.5 -0.625,-2.171875q-0.625,-0.6875 -1.953125,-0.6875q-1.78125,0 -2.609375,0.90625q-0.8125,0.890625 -0.8125,2.90625l0,5.46875l-0.90625,0l0,-9.90625l0.765625,0l0.171875,1.359375l0.0625,0q0.953125,-1.546875 3.421875,-1.546875q3.375,0 3.375,3.609375l0,6.484375l-0.890625,0zm8.098022,0.1875q-2.15625,0 -3.375,-1.328125q-1.203125,-1.34375 -1.203125,-3.734375q0,-2.359375 1.171875,-3.78125q1.171875,-1.4375 3.140625,-1.4375q1.75,0 2.765625,1.21875q1.015625,1.21875 1.015625,3.3125l0,0.734375l-7.140625,0q0.015594,2.046875 0.953125,3.125q0.9375,1.0625 2.671875,1.0625q0.84375,0 1.484375,-0.109375q0.640625,-0.125 1.625,-0.515625l0,0.8125q-0.828125,0.375 -1.546875,0.5q-0.703125,0.140625 -1.5625,0.140625zm-0.265625,-9.484375q-1.421875,0 -2.296875,0.953125q-0.859375,0.9375 -1,2.71875l6.109375,0q0,-1.71875 -0.75,-2.6875q-0.734375,-0.984375 -2.0625,-0.984375zm10.41095,-0.796875q0.625,0 1.34375,0.125l-0.171875,0.875q-0.625,-0.15625 -1.28125,-0.15625q-1.265625,0 -2.078125,1.078125q-0.8125,1.0625 -0.8125,2.703125l0,5.46875l-0.90625,0l0,-9.90625l0.765625,0l0.093719,1.796875l0.0625,0q0.609375,-1.09375 1.296875,-1.53125q0.703125,-0.453125 1.6875,-0.453125l0.000031,0zm12.434662,10.28125q-2.28125,0 -3.328125,-1.71875l-0.0625,0l0.015594,0.765625q0.046906,0.671875 0.046906,1.46875l0,3.78125l-0.90625,0l0,-14.390625l0.765625,0l0.171875,1.421875l0.0625,0q1.015625,-1.609375 3.25,-1.609375q2.015625,0 3.0625,1.328125q1.046875,1.3125 1.046875,3.8125q0,2.453125 -1.109375,3.796875q-1.09375,1.34375 -3.015625,1.34375zm-0.015594,-0.8125q1.515625,0 2.34375,-1.125q0.84375,-1.125 0.84375,-3.15625q0,-4.375 -3.15625,-4.375q-1.71875,0 -2.53125,0.953125q-0.8125,0.953125 -0.8125,3.109375l0,0.296875q0,2.3125 0.78125,3.3125q0.78125,0.984375 2.53125,0.984375zm7.791962,0.625l-0.90625,0l0,-14.171875l0.90625,0l0,14.171875zm9.327057,0l-0.234375,-1.5625l-0.0625,0q-0.75,0.953125 -1.546875,1.359375q-0.78125,0.390625 -1.859375,0.390625q-1.453125,0 -2.265625,-0.75q-0.8125,-0.75 -0.8125,-2.0625q0,-1.453125 1.203125,-2.25q1.21875,-0.8125 3.5,-0.859375l1.890625,-0.046906l0,-0.65625q0,-1.421875 -0.578125,-2.140625q-0.578125,-0.71875 -1.84375,-0.71875q-1.375,0 -2.859375,0.765625l-0.328125,-0.78125q1.625,-0.765625 3.21875,-0.765625q1.625,0 2.421875,0.859375q0.8125,0.84375 0.8125,2.625l0,6.59375l-0.65625,0.000031zm-3.640625,-0.640625q1.578125,0 2.484375,-0.90625q0.921875,-0.90625 0.921875,-2.515625l0,-0.96875l-1.71875,0.0625q-2.09375,0.109375 -2.984375,0.65625q-0.890625,0.546875 -0.890625,1.71875q0,0.921875 0.5625,1.4375q0.578125,0.515625 1.625,0.515625zm10.118195,0.015594q0.859375,0 1.5,-0.140625l0,0.734375q-0.65625,0.21875 -1.515625,0.21875q-1.3125,0 -1.9375,-0.703125q-0.625,-0.703125 -0.625,-2.203125l0,-6.40625l-1.453125,0l0,-0.515625l1.453125,-0.421875l0.46875,-2.234375l0.453125,0l0,2.390625l2.90625,0l0,0.78125l-2.90625,0l0,6.28125q0,1.125 0.40625,1.671875q0.40625,0.546875 1.25,0.546875zm7.327209,-8.5l-2.34375,0l0,9.125l-0.890625,0l0,-9.125l-1.84375,0l0,-0.515625l1.84375,-0.34375l0,-0.765625q0,-1.828125 0.65625,-2.671875q0.671875,-0.859375 2.203125,-0.859375q0.8125,0 1.640625,0.25l-0.21875,0.78125q-0.71875,-0.21875 -1.4375,-0.21875q-1.0625,0 -1.515625,0.625q-0.4375,0.625 -0.4375,2.015625l0,0.921875l2.34375,0l0,0.78125zm10.093262,4.15625q0,2.421875 -1.171875,3.796875q-1.171875,1.359375 -3.25,1.359375q-1.296875,0 -2.296875,-0.625q-0.984375,-0.640625 -1.515625,-1.8125q-0.53125,-1.171875 -0.53125,-2.71875q0,-2.421875 1.171875,-3.765625q1.1875,-1.359375 3.234375,-1.359375q2.046875,0 3.203125,1.375q1.15625,1.375 1.15625,3.75zm-7.8125,0q0,2.046875 0.890625,3.1875q0.90625,1.140625 2.546875,1.140625q1.640625,0 2.53125,-1.140625q0.90625,-1.140625 0.90625,-3.1875q0,-2.046875 -0.90625,-3.171875q-0.90625,-1.140625 -2.546875,-1.140625q-1.640625,0 -2.53125,1.140625q-0.890625,1.125 -0.890625,3.171875zm14.462646,-5.125q0.625,0 1.34375,0.125l-0.171875,0.875q-0.625,-0.15625 -1.28125,-0.15625q-1.265625,0 -2.078125,1.078125q-0.8125,1.0625 -0.8125,2.703125l0,5.46875l-0.90625,0l0,-9.90625l0.765625,0l0.093689,1.796875l0.0625,0q0.609375,-1.09375 1.296875,-1.53125q0.703125,-0.453125 1.6875,-0.453125l0.000061,0zm15.729004,10.09375l0,-6.5q0,-1.4375 -0.5625,-2.109375q-0.5625,-0.671875 -1.734375,-0.671875q-1.515625,0 -2.25,0.84375q-0.734375,0.84375 -0.734375,2.640625l0,5.796875l-0.921875,0l0,-6.765625q0,-2.515625 -2.296875,-2.515625q-1.546875,0 -2.265625,0.921875q-0.703125,0.90625 -0.703125,2.890625l0,5.46875l-0.90625,0l0,-9.90625l0.75,0l0.1875,1.359375l0.0625,0q0.40625,-0.734375 1.15625,-1.140625q0.765625,-0.40625 1.671875,-0.40625q2.34375,0 3,1.765625l0.046875,0q0.484375,-0.859375 1.296875,-1.3125q0.8125,-0.453125 1.84375,-0.453125q1.625,0 2.4375,0.875q0.8125,0.859375 0.8125,2.734375l0,6.484375l-0.890625,0z" fill-rule="nonzero" fill="#ffffff"/>
    <path id="path15" d="m228.085403,0.00841l211.149551,0l0,284.440961l-211.149551,0l0,-284.440961z" fill-rule="evenodd" fill="#0b5394">NodeJs</path>
    <path id="path17" d="m322.357849,271.369354l-0.9375,0l-7.890625,-11.828125l-0.0625,0q0.109375,2.125 0.109375,3.1875l0,8.640625l-0.890625,0l0,-13.3125l0.921875,0l7.875,11.796875l0.0625,0q-0.078094,-1.640625 -0.078094,-3.109375l0,-8.6875l0.890625,0l-0.000031,13.3125zm11.735962,-4.96875q0,2.421875 -1.171875,3.796875q-1.171875,1.359375 -3.25,1.359375q-1.296875,0 -2.296875,-0.625q-0.984375,-0.640625 -1.515625,-1.8125q-0.53125,-1.171875 -0.53125,-2.71875q0,-2.421875 1.171875,-3.765625q1.1875,-1.359375 3.234375,-1.359375q2.046875,0 3.203125,1.375q1.15625,1.375 1.15625,3.75zm-7.8125,0q0,2.046875 0.890625,3.1875q0.90625,1.140625 2.546875,1.140625q1.640625,0 2.53125,-1.140625q0.90625,-1.140625 0.90625,-3.1875q0,-2.046875 -0.90625,-3.171875q-0.90625,-1.140625 -2.546875,-1.140625q-1.640625,0 -2.53125,1.140625q-0.890625,1.125 -0.890625,3.171875zm14.181396,-5.125q1.078125,0 1.859375,0.390625q0.78125,0.390625 1.40625,1.34375l0.046906,0q-0.046906,-1.15625 -0.046906,-2.25l0,-3.5625l0.890625,0l0,14.171875l-0.59375,0l-0.21875,-1.515625l-0.078094,0q-1.125,1.703125 -3.25,1.703125q-2.046875,0 -3.140625,-1.28125q-1.078125,-1.28125 -1.078125,-3.71875q0,-2.5625 1.078125,-3.921875q1.078125,-1.359375 3.125,-1.359375l-0.000031,0zm0,0.8125q-1.625,0 -2.4375,1.140625q-0.8125,1.140625 -0.8125,3.3125q0,4.203125 3.265625,4.203125q1.6875,0 2.46875,-0.96875q0.78125,-0.96875 0.78125,-3.21875l0,-0.15625q0,-2.296875 -0.78125,-3.296875q-0.765625,-1.015625 -2.484375,-1.015625zm11.479492,9.46875q-2.15625,0 -3.375,-1.328125q-1.203125,-1.34375 -1.203125,-3.734375q0,-2.359375 1.171875,-3.78125q1.171875,-1.4375 3.140625,-1.4375q1.75,0 2.765625,1.21875q1.015625,1.21875 1.015625,3.3125l0,0.734375l-7.140625,0q0.015594,2.046875 0.953125,3.125q0.9375,1.0625 2.671875,1.0625q0.84375,0 1.484375,-0.109375q0.640625,-0.125 1.625,-0.515625l0,0.8125q-0.828125,0.375 -1.546875,0.5q-0.703125,0.140625 -1.5625,0.140625zm-0.265625,-9.484375q-1.421875,0 -2.296875,0.953125q-0.859375,0.9375 -1,2.71875l6.109375,0q0,-1.71875 -0.75,-2.6875q-0.734375,-0.984375 -2.0625,-0.984375z" fill-rule="nonzero" fill="#ffffff"/>
    <path id="path19" d="m241.86615,12.73807l183.590576,0l0,24.97637l-183.590576,0l0,-24.97637z" fill-rule="evenodd" fill="#4695eb"/>
    <path id="path23" d="m241.86615,45.714439l183.590576,0l0,24.976379l-183.590576,0l0,-24.976379z" fill-rule="evenodd" fill="#4695eb"/>
    <path id="path27" d="m242.86615,78.690819l183.590576,0l0,24.976379l-183.590576,0l0,-24.976379z" fill-rule="evenodd" fill="#4695eb"/>
    <path id="path31" d="m241.86615,111.667198l183.590576,0l0,24.976387l-183.590576,0l0,-24.976387z" fill-rule="evenodd" fill="#4695eb"/>
    <path id="path35" d="m241.86615,144.643585l183.590576,0l0,24.976364l-183.590576,0l0,-24.976364z" fill-rule="evenodd" fill="#4695eb"/>
    <path id="path39" d="m241.86615,177.619934l183.590576,0l0,24.976379l-183.590576,0l0,-24.976379z" fill-rule="evenodd" fill="#4695eb"/>
    <path id="path43" d="m241.86615,210.596313l183.590576,0l0,24.976379l-183.590576,0l0,-24.976379z" fill-rule="evenodd" fill="#4695eb"/>
    <path id="path47" d="m456.170746,0.00841l211.149567,0l0,284.440961l-211.149567,0l0,-284.440961z" fill-rule="evenodd" fill="#0b5394"/>
    <path id="path49" d="m550.443237,271.369354l-0.9375,0l-7.890625,-11.828125l-0.0625,0q0.109375,2.125 0.109375,3.1875l0,8.640625l-0.890625,0l0,-13.3125l0.921875,0l7.875,11.796875l0.0625,0q-0.078125,-1.640625 -0.078125,-3.109375l0,-8.6875l0.890625,0l0,13.3125zm11.736023,-4.96875q0,2.421875 -1.171875,3.796875q-1.171875,1.359375 -3.25,1.359375q-1.296875,0 -2.296875,-0.625q-0.984375,-0.640625 -1.515625,-1.8125q-0.53125,-1.171875 -0.53125,-2.71875q0,-2.421875 1.171875,-3.765625q1.1875,-1.359375 3.234375,-1.359375q2.046875,0 3.203125,1.375q1.15625,1.375 1.15625,3.75zm-7.8125,0q0,2.046875 0.890625,3.1875q0.90625,1.140625 2.546875,1.140625q1.640625,0 2.53125,-1.140625q0.90625,-1.140625 0.90625,-3.1875q0,-2.046875 -0.90625,-3.171875q-0.90625,-1.140625 -2.546875,-1.140625q-1.640625,0 -2.53125,1.140625q-0.890625,1.125 -0.890625,3.171875zm14.181396,-5.125q1.078125,0 1.859375,0.390625q0.78125,0.390625 1.40625,1.34375l0.046875,0q-0.046875,-1.15625 -0.046875,-2.25l0,-3.5625l0.890625,0l0,14.171875l-0.59375,0l-0.21875,-1.515625l-0.078125,0q-1.125,1.703125 -3.25,1.703125q-2.046814,0 -3.140564,-1.28125q-1.078186,-1.28125 -1.078186,-3.71875q0,-2.5625 1.078186,-3.921875q1.078064,-1.359375 3.125,-1.359375l-0.000061,0zm0,0.8125q-1.625,0 -2.4375,1.140625q-0.8125,1.140625 -0.8125,3.3125q0,4.203125 3.265625,4.203125q1.6875,0 2.46875,-0.96875q0.78125,-0.96875 0.78125,-3.21875l0,-0.15625q0,-2.296875 -0.78125,-3.296875q-0.765625,-1.015625 -2.484375,-1.015625zm11.479431,9.46875q-2.15625,0 -3.375,-1.328125q-1.203125,-1.34375 -1.203125,-3.734375q0,-2.359375 1.171875,-3.78125q1.171875,-1.4375 3.140625,-1.4375q1.75,0 2.765625,1.21875q1.015625,1.21875 1.015625,3.3125l0,0.734375l-7.140625,0q0.015625,2.046875 0.953125,3.125q0.9375,1.0625 2.671875,1.0625q0.84375,0 1.484375,-0.109375q0.640625,-0.125 1.625,-0.515625l0,0.8125q-0.828125,0.375 -1.546875,0.5q-0.703125,0.140625 -1.5625,0.140625zm-0.265625,-9.484375q-1.421875,0 -2.296875,0.953125q-0.859375,0.9375 -1,2.71875l6.109375,0q0,-1.71875 -0.75,-2.6875q-0.734375,-0.984375 -2.0625,-0.984375z" fill-rule="nonzero" fill="#ffffff"/>
    <path id="path51" d="m469.950165,12.73807l84.787445,0l0,24.97637l-84.787445,0l0,-24.97637z" fill-rule="evenodd" fill="#4695eb"/>
    <path id="path55" d="m568.753296,12.73807l84.787415,0l0,24.97637l-84.787415,0l0,-24.97637z" fill-rule="evenodd" fill="#4695eb"/>
    <path id="path59" d="m469.950165,45.714439l84.787445,0l0,24.976379l-84.787445,0l0,-24.976379z" fill-rule="evenodd" fill="#4695eb"/>
    <path id="path63" d="m568.753296,45.714439l84.787415,0l0,24.976379l-84.787415,0l0,-24.976379z" fill-rule="evenodd" fill="#4695eb"/>
    <path id="path67" d="m469.950165,78.690819l84.787445,0l0,24.976379l-84.787445,0l0,-24.976379z" fill-rule="evenodd" fill="#4695eb"/>
    <path id="path71" d="m568.753296,78.690819l84.787415,0l0,24.976379l-84.787415,0l0,-24.976379z" fill-rule="evenodd" fill="#4695eb"/>
    <path id="path75" d="m469.950165,111.667198l84.787445,0l0,24.976387l-84.787445,0l0,-24.976387z" fill-rule="evenodd" fill="#4695eb"/>
    <path id="path79" d="m568.753296,111.667198l84.787415,0l0,24.976387l-84.787415,0l0,-24.976387z" fill-rule="evenodd" fill="#4695eb"/>
    <path id="path83" d="m469.950165,144.643585l84.787445,0l0,24.976364l-84.787445,0l0,-24.976364z" fill-rule="evenodd" fill="#4695eb"/>
    <path id="path87" d="m568.753296,144.643585l84.787415,0l0,24.976364l-84.787415,0l0,-24.976364z" fill-rule="evenodd" fill="#4695eb"/>
    <path id="path91" d="m469.950165,176.619934l84.787445,0l0,24.976379l-84.787445,0l0,-24.976379z" fill-rule="evenodd" fill="#4695eb"/>
    <path id="path95" d="m568.753296,177.619934l84.787415,0l0,24.976379l-84.787415,0l0,-24.976379z" fill-rule="evenodd" fill="#4695eb"/>
    <path id="path99" d="m469.950165,210.596313l84.787445,0l0,24.976379l-84.787445,0l0,-24.976379z" fill-rule="evenodd" fill="#4695eb"/>
    <path id="path103" d="m568.753296,210.596313l84.787415,0l0,24.976379l-84.787415,0l0,-24.976379z" fill-rule="evenodd" fill="#4695eb"/>
    <path id="path107" d="m0,0.00841l211.149612,0l0,284.440961l-211.149612,0l0,-284.440961z" fill-rule="evenodd" fill="#0b5394"/>
    <path id="path109" d="m94.272476,271.369354l-0.9375,0l-7.890625,-11.828125l-0.0625,0q0.109375,2.125 0.109375,3.1875l0,8.640625l-0.890625,0l0,-13.3125l0.921875,0l7.875,11.796875l0.0625,0q-0.078094,-1.640625 -0.078094,-3.109375l0,-8.6875l0.890625,0l-0.000031,13.3125zm11.735985,-4.96875q0,2.421875 -1.171883,3.796875q-1.171867,1.359375 -3.25,1.359375q-1.296867,0 -2.296867,-0.625q-0.984383,-0.640625 -1.515633,-1.8125q-0.53125,-1.171875 -0.53125,-2.71875q0,-2.421875 1.171883,-3.765625q1.1875,-1.359375 3.234367,-1.359375q2.046883,0 3.203133,1.375q1.15625,1.375 1.15625,3.75zm-7.8125,0q0,2.046875 0.890617,3.1875q0.90625,1.140625 2.546883,1.140625q1.640617,0 2.53125,-1.140625q0.90625,-1.140625 0.90625,-3.1875q0,-2.046875 -0.90625,-3.171875q-0.90625,-1.140625 -2.546883,-1.140625q-1.640617,0 -2.53125,1.140625q-0.890617,1.125 -0.890617,3.171875zm14.181381,-5.125q1.078117,0 1.859367,0.390625q0.78125,0.390625 1.40625,1.34375l0.046898,0q-0.046898,-1.15625 -0.046898,-2.25l0,-3.5625l0.890633,0l0,14.171875l-0.59375,0l-0.21875,-1.515625l-0.078102,0q-1.125,1.703125 -3.25,1.703125q-2.046867,0 -3.14061,-1.28125q-1.078117,-1.28125 -1.078117,-3.71875q0,-2.5625 1.078117,-3.921875q1.07811,-1.359375 3.124992,-1.359375l-0.000031,0zm0,0.8125q-1.625,0 -2.4375,1.140625q-0.812492,1.140625 -0.812492,3.3125q0,4.203125 3.26561,4.203125q1.6875,0 2.46875,-0.96875q0.78125,-0.96875 0.78125,-3.21875l0,-0.15625q0,-2.296875 -0.78125,-3.296875q-0.765617,-1.015625 -2.484367,-1.015625zm11.479485,9.46875q-2.15625,0 -3.375,-1.328125q-1.203125,-1.34375 -1.203125,-3.734375q0,-2.359375 1.171875,-3.78125q1.171875,-1.4375 3.140625,-1.4375q1.75,0 2.765625,1.21875q1.015625,1.21875 1.015625,3.3125l0,0.734375l-7.140625,0q0.015602,2.046875 0.953125,3.125q0.9375,1.0625 2.671875,1.0625q0.84375,0 1.484375,-0.109375q0.640625,-0.125 1.625,-0.515625l0,0.8125q-0.828125,0.375 -1.546875,0.5q-0.703125,0.140625 -1.5625,0.140625zm-0.265625,-9.484375q-1.421875,0 -2.296875,0.953125q-0.859375,0.9375 -1,2.71875l6.109375,0q0,-1.71875 -0.75,-2.6875q-0.734375,-0.984375 -2.0625,-0.984375z" fill-rule="nonzero" fill="#ffffff"/>
    <path id="path111" d="m13.78217,12.73807l183.590526,0l0,41.32284l-183.590526,0l0,-41.32284z" fill-rule="evenodd" fill="#4695eb">Go</path>
    <path id="path119" d="m13.78217,73.241997l183.590526,0l0,41.322845l-183.590526,0l0,-41.322845z" fill-rule="evenodd" fill="#4695eb"/>
    <path id="path127" d="m13.78217,133.745941l183.590526,0l0,41.32283l-183.590526,0l0,-41.32283z" fill-rule="evenodd" fill="#4695eb"/>
    <path id="path135" d="m13.78217,194.249893l183.590526,0l0,41.3228l-183.590526,0l0,-41.3228z" fill-rule="evenodd" fill="#4695eb"/>
    <text xml:space="preserve" x="88.60659" y="100.81228" id="text1035-5" fill="#ffffff" font-family="'Courier New', Courier, monospace" font-size="40px" font-weight="normal" font-style="normal" transform="matrix(0.706643 0 0 0.716232 12.9494 31.0589)">Java</text>
    <text xml:space="preserve" x="88.60659" y="17.040534" id="svg_5" fill="#ffffff" font-family="'Courier New', Courier, monospace" font-size="40px" font-weight="normal" font-style="normal" transform="matrix(0.706643 0 0 0.716232 12.9494 31.0589)">Java</text>
    <text xml:space="preserve" x="88.60659" y="184.584026" id="svg_6" fill="#ffffff" font-family="'Courier New', Courier, monospace" font-size="40px" font-weight="normal" font-style="normal" transform="matrix(0.706643 0 0 0.716232 12.9494 31.0589)">Java</text>
    <text xml:space="preserve" x="88.60659" y="268.355771" id="svg_7" fill="#ffffff" font-family="'Courier New', Courier, monospace" font-size="40px" font-weight="normal" font-style="normal" transform="matrix(0.706643 0 0 0.716232 12.9494 31.0589)">Java</text>
    <text xml:space="preserve" x="682.96618" y="3.078577" id="svg_8" fill="#ffffff" font-family="'Courier New', Courier, monospace" font-size="40px" font-weight="normal" font-style="normal" transform="matrix(0.706643 0 0 0.716232 12.9494 31.0589)">Go</text>
    <text xml:space="preserve" x="682.96618" y="49.153037" id="svg_9" fill="#ffffff" font-family="'Courier New', Courier, monospace" font-size="40px" font-weight="normal" font-style="normal" transform="matrix(0.706643 0 0 0.716232 12.9494 31.0589)">Go</text>
    <text xml:space="preserve" x="682.96618" y="95.227497" id="svg_10" fill="#ffffff" font-family="'Courier New', Courier, monospace" font-size="40px" font-weight="normal" font-style="normal" transform="matrix(0.706643 0 0 0.716232 12.9494 31.0589)">Go</text>
    <text xml:space="preserve" x="682.96618" y="141.301957" id="svg_11" fill="#ffffff" font-family="'Courier New', Courier, monospace" font-size="40px" font-weight="normal" font-style="normal" transform="matrix(0.706643 0 0 0.716232 12.9494 31.0589)">Go</text>
    <text xml:space="preserve" x="682.96618" y="187.376417" id="svg_13" fill="#ffffff" font-family="'Courier New', Courier, monospace" font-size="40px" font-weight="normal" font-style="normal" transform="matrix(0.706643 0 0 0.716232 12.9494 31.0589)">Go</text>
    <text xml:space="preserve" x="682.96618" y="232.054681" id="svg_14" fill="#ffffff" font-family="'Courier New', Courier, monospace" font-size="40px" font-weight="normal" font-style="normal" transform="matrix(0.706643 0 0 0.716232 12.9494 31.0589)">Go</text>
    <text xml:space="preserve" x="682.96618" y="279.525337" id="svg_15" fill="#ffffff" font-family="'Courier New', Courier, monospace" font-size="40px" font-weight="normal" font-style="normal" transform="matrix(0.706643 0 0 0.716232 12.9494 31.0589)">Go</text>
    <text xml:space="preserve" x="817.40466" y="3.078577" id="svg_17" fill="#ffffff" font-family="'Courier New', Courier, monospace" font-size="40px" font-weight="normal" font-style="normal" transform="matrix(0.706643 0 0 0.716232 12.9494 31.0589)">Go</text>
    <text xml:space="preserve" x="817.40466" y="49.153037" id="svg_18" fill="#ffffff" font-family="'Courier New', Courier, monospace" font-size="40px" font-weight="normal" font-style="normal" transform="matrix(0.706643 0 0 0.716232 12.9494 31.0589)">Go</text>
    <text xml:space="preserve" x="817.40466" y="95.227497" id="svg_19" fill="#ffffff" font-family="'Courier New', Courier, monospace" font-size="40px" font-weight="normal" font-style="normal" transform="matrix(0.706643 0 0 0.716232 12.9494 31.0589)">Go</text>
    <text xml:space="preserve" x="817.40466" y="141.301957" id="svg_20" fill="#ffffff" font-family="'Courier New', Courier, monospace" font-size="40px" font-weight="normal" font-style="normal" transform="matrix(0.706643 0 0 0.716232 12.9494 31.0589)">Go</text>
    <text xml:space="preserve" x="817.40466" y="187.376417" id="svg_21" fill="#ffffff" font-family="'Courier New', Courier, monospace" font-size="40px" font-weight="normal" font-style="normal" transform="matrix(0.706643 0 0 0.716232 12.9494 31.0589)">Go</text>
    <text xml:space="preserve" x="817.40466" y="233.450877" id="svg_22" fill="#ffffff" font-family="'Courier New', Courier, monospace" font-size="40px" font-weight="normal" font-style="normal" transform="matrix(0.706643 0 0 0.716232 12.9494 31.0589)">Go</text>
    <text xml:space="preserve" x="817.40466" y="279.525337" id="svg_23" fill="#ffffff" font-family="'Courier New', Courier, monospace" font-size="40px" font-weight="normal" font-style="normal" transform="matrix(0.706643 0 0 0.716232 12.9494 31.0589)">Go</text>
    <text xml:space="preserve" x="381.54096" y="3.078577" id="svg_24" fill="#ffffff" font-family="'Courier New', Courier, monospace" font-size="40px" font-weight="normal" font-style="normal" transform="matrix(0.706643 0 0 0.716232 12.9494 31.0589)">NodeJs</text>
    <text xml:space="preserve" x="381.54096" y="49.153037" id="svg_25" fill="#ffffff" font-family="'Courier New', Courier, monospace" font-size="40px" font-weight="normal" font-style="normal" transform="matrix(0.706643 0 0 0.716232 12.9494 31.0589)">NodeJs</text>
    <text xml:space="preserve" x="381.54096" y="95.227497" id="svg_26" fill="#ffffff" font-family="'Courier New', Courier, monospace" font-size="40px" font-weight="normal" font-style="normal" transform="matrix(0.706643 0 0 0.716232 12.9494 31.0589)">NodeJs</text>
    <text xml:space="preserve" x="381.54096" y="141.301957" id="svg_27" fill="#ffffff" font-family="'Courier New', Courier, monospace" font-size="40px" font-weight="normal" font-style="normal" transform="matrix(0.706643 0 0 0.716232 12.9494 31.0589)">NodeJs</text>
    <text xml:space="preserve" x="381.54096" y="187.376417" id="svg_28" fill="#ffffff" font-family="'Courier New', Courier, monospace" font-size="40px" font-weight="normal" font-style="normal" transform="matrix(0.706643 0 0 0.716232 12.9494 31.0589)">NodeJs</text>
    <text xml:space="preserve" x="381.54096" y="233.450877" id="svg_29" fill="#ffffff" font-family="'Courier New', Courier, monospace" font-size="40px" font-weight="normal" font-style="normal" transform="matrix(0.706643 0 0 0.716232 12.9494 31.0589)">NodeJs</text>
    <text xml:space="preserve" x="381.54096" y="275.33675" id="svg_30" fill="#ffffff" font-family="'Courier New', Courier, monospace" font-size="40px" font-weight="normal" font-style="normal" transform="matrix(0.706643 0 0 0.716232 12.9494 31.0589)">NodeJs</text>
    <path id="svg_1" d="m684.170776,0.00841l211.149536,0l0,284.440961l-211.149536,0l0,-284.440961z" fill-rule="evenodd" fill="#0b5394"/>
    <path id="svg_2" d="m778.443237,271.369354l-0.9375,0l-7.890625,-11.828125l-0.0625,0q0.109375,2.125 0.109375,3.1875l0,8.640625l-0.890625,0l0,-13.3125l0.921875,0l7.875,11.796875l0.0625,0q-0.078125,-1.640625 -0.078125,-3.109375l0,-8.6875l0.890625,0l0,13.3125zm11.736023,-4.96875q0,2.421875 -1.171875,3.796875q-1.171875,1.359375 -3.25,1.359375q-1.296875,0 -2.296875,-0.625q-0.984375,-0.640625 -1.515625,-1.8125q-0.53125,-1.171875 -0.53125,-2.71875q0,-2.421875 1.171875,-3.765625q1.1875,-1.359375 3.234375,-1.359375q2.046875,0 3.203125,1.375q1.15625,1.375 1.15625,3.75zm-7.8125,0q0,2.046875 0.890625,3.1875q0.90625,1.140625 2.546875,1.140625q1.640625,0 2.53125,-1.140625q0.90625,-1.140625 0.90625,-3.1875q0,-2.046875 -0.90625,-3.171875q-0.90625,-1.140625 -2.546875,-1.140625q-1.640625,0 -2.53125,1.140625q-0.890625,1.125 -0.890625,3.171875zm14.181396,-5.125q1.078125,0 1.859375,0.390625q0.78125,0.390625 1.40625,1.34375l0.046875,0q-0.046875,-1.15625 -0.046875,-2.25l0,-3.5625l0.890625,0l0,14.171875l-0.59375,0l-0.21875,-1.515625l-0.078125,0q-1.125,1.703125 -3.25,1.703125q-2.046814,0 -3.140564,-1.28125q-1.078186,-1.28125 -1.078186,-3.71875q0,-2.5625 1.078186,-3.921875q1.078064,-1.359375 3.125,-1.359375l-0.000061,0zm0,0.8125q-1.625,0 -2.4375,1.140625q-0.8125,1.140625 -0.8125,3.3125q0,4.203125 3.265625,4.203125q1.6875,0 2.46875,-0.96875q0.78125,-0.96875 0.78125,-3.21875l0,-0.15625q0,-2.296875 -0.78125,-3.296875q-0.765625,-1.015625 -2.484375,-1.015625zm11.479431,9.46875q-2.15625,0 -3.375,-1.328125q-1.203125,-1.34375 -1.203125,-3.734375q0,-2.359375 1.171875,-3.78125q1.171875,-1.4375 3.140625,-1.4375q1.75,0 2.765625,1.21875q1.015625,1.21875 1.015625,3.3125l0,0.734375l-7.140625,0q0.015625,2.046875 0.953125,3.125q0.9375,1.0625 2.671875,1.0625q0.84375,0 1.484375,-0.109375q0.640625,-0.125 1.625,-0.515625l0,0.8125q-0.828125,0.375 -1.546875,0.5q-0.703125,0.140625 -1.5625,0.140625zm-0.265625,-9.484375q-1.421875,0 -2.296875,0.953125q-0.859375,0.9375 -1,2.71875l6.109375,0q0,-1.71875 -0.75,-2.6875q-0.734375,-0.984375 -2.0625,-0.984375z" fill-rule="nonzero" fill="#ffffff"/>
    <path id="svg_4" d="m698.950195,12.73807l84.787415,0l0,24.97637l-84.787415,0l0,-24.97637z" fill-rule="evenodd" fill="#4695eb"/>
    <path id="svg_12" d="m797.753296,12.73807l84.787415,0l0,24.97637l-84.787415,0l0,-24.97637z" fill-rule="evenodd" fill="#4695eb"/>
    <path id="svg_16" d="m698.950195,45.714439l84.787415,0l0,24.976379l-84.787415,0l0,-24.976379z" fill-rule="evenodd" fill="#4695eb"/>
    <path id="svg_31" d="m797.753296,45.714439l84.787415,0l0,24.976379l-84.787415,0l0,-24.976379z" fill-rule="evenodd" fill="#4695eb"/>
    <path id="svg_32" d="m698.950195,78.690819l84.787415,0l0,24.976379l-84.787415,0l0,-24.976379z" fill-rule="evenodd" fill="#4695eb"/>
    <path id="svg_33" d="m797.753296,78.690819l84.787415,0l0,24.976379l-84.787415,0l0,-24.976379z" fill-rule="evenodd" fill="#4695eb"/>
    <path id="svg_34" d="m698.950195,111.667198l84.787415,0l0,24.976387l-84.787415,0l0,-24.976387z" fill-rule="evenodd" fill="#4695eb"/>
    <path id="svg_35" d="m797.753296,111.667198l84.787415,0l0,24.976387l-84.787415,0l0,-24.976387z" fill-rule="evenodd" fill="#4695eb"/>
    <path id="svg_36" d="m698.950195,144.643585l84.787415,0l0,24.976364l-84.787415,0l0,-24.976364z" fill-rule="evenodd" fill="#4695eb"/>
    <path id="svg_37" d="m797.753296,144.643585l84.787415,0l0,24.976364l-84.787415,0l0,-24.976364z" fill-rule="evenodd" fill="#4695eb"/>
    <path id="svg_38" d="m698.950195,176.619934l84.787415,0l0,24.976379l-84.787415,0l0,-24.976379z" fill-rule="evenodd" fill="#4695eb"/>
    <path id="svg_39" d="m797.753296,177.619934l84.787415,0l0,24.976379l-84.787415,0l0,-24.976379z" fill-rule="evenodd" fill="#4695eb"/>
    <path id="svg_40" d="m698.950195,210.596313l84.787415,0l0,24.976379l-84.787415,0l0,-24.976379z" fill-rule="evenodd" fill="#4695eb"/>
    <path id="svg_41" d="m797.753296,210.596313l84.787415,0l0,24.976379l-84.787415,0l0,-24.976379z" fill-rule="evenodd" fill="#4695eb"/>
    <text xml:space="preserve" x="973.070266" y="0.286185" id="svg_42" fill="#ffffff" font-family="'Courier New', Courier, monospace" font-size="28" font-weight="normal" font-style="normal" transform="matrix(0.706643 0 0 0.716232 12.9494 31.0589)">Quarkus</text>
    <path id="svg_56" d="m913.170776,0.00841l211.149536,0l0,284.440961l-211.149536,0l0,-284.440961z" fill-rule="evenodd" fill="#0b5394"/>
    <text xml:space="preserve" x="973.070266" y="46.360646" id="svg_57" fill="#ffffff" font-family="'Courier New', Courier, monospace" font-size="28" font-weight="normal" font-style="normal" transform="matrix(0.706643 0 0 0.716232 12.9494 31.0589)">Quarkus</text>
    <text xml:space="preserve" x="973.070266" y="92.435106" id="svg_58" fill="#ffffff" font-family="'Courier New', Courier, monospace" font-size="28" font-weight="normal" font-style="normal" transform="matrix(0.706643 0 0 0.716232 12.9494 31.0589)">Quarkus</text>
    <text xml:space="preserve" x="973.070266" y="138.509566" id="svg_59" fill="#ffffff" font-family="'Courier New', Courier, monospace" font-size="28" font-weight="normal" font-style="normal" transform="matrix(0.706643 0 0 0.716232 12.9494 31.0589)">Quarkus</text>
    <text xml:space="preserve" x="973.070266" y="184.584026" id="svg_60" fill="#ffffff" font-family="'Courier New', Courier, monospace" font-size="28" font-weight="normal" font-style="normal" transform="matrix(0.706643 0 0 0.716232 12.9494 31.0589)">Quarkus</text>
    <text xml:space="preserve" x="973.070266" y="229.26229" id="svg_61" fill="#ffffff" font-family="'Courier New', Courier, monospace" font-size="28" font-weight="normal" font-style="normal" transform="matrix(0.706643 0 0 0.716232 12.9494 31.0589)">Quarkus</text>
    <text xml:space="preserve" x="973.070266" y="276.732946" id="svg_62" fill="#ffffff" font-family="'Courier New', Courier, monospace" font-size="28" font-weight="normal" font-style="normal" transform="matrix(0.706643 0 0 0.716232 12.9494 31.0589)">Quarkus</text>
    <text xml:space="preserve" x="1113.169312" y="276.732946" id="svg_63" fill="#ffffff" font-family="'Courier New', Courier, monospace" font-size="28" font-weight="normal" font-style="normal" transform="matrix(0.706643 0 0 0.716232 12.9494 31.0589)">Quarkus</text>
    <text xml:space="preserve" x="1113.169312" y="0.286185" id="svg_64" fill="#ffffff" font-family="'Courier New', Courier, monospace" font-size="28" font-weight="normal" font-style="normal" transform="matrix(0.706643 0 0 0.716232 12.9494 31.0589)">Quarkus</text>
    <text xml:space="preserve" x="1113" y="46.360646" id="svg_65" fill="#ffffff" font-family="'Courier New', Courier, monospace" font-size="28" font-weight="normal" font-style="normal" transform="matrix(0.706643 0 0 0.716232 12.9494 31.0589)">Quarkus</text>
    <text xml:space="preserve" x="1113" y="92.435106" id="svg_66" fill="#ffffff" font-family="'Courier New', Courier, monospace" font-size="28" font-weight="normal" font-style="normal" transform="matrix(0.706643 0 0 0.716232 12.9494 31.0589)">Quarkus</text>
    <text xml:space="preserve" x="1113" y="138.509566" id="svg_67" fill="#ffffff" font-family="'Courier New', Courier, monospace" font-size="28" font-weight="normal" font-style="normal" transform="matrix(0.706643 0 0 0.716232 12.9494 31.0589)">Quarkus</text>
    <text xml:space="preserve" x="1113" y="184.584026" id="svg_68" fill="#ffffff" font-family="'Courier New', Courier, monospace" font-size="28" font-weight="normal" font-style="normal" transform="matrix(0.706643 0 0 0.716232 12.9494 31.0589)">Quarkus</text>
    <text xml:space="preserve" x="1113" y="229.26229" id="svg_69" fill="#ffffff" font-family="'Courier New', Courier, monospace" font-size="28" font-weight="normal" font-style="normal" transform="matrix(0.706643 0 0 0.716232 12.9494 31.0589)">Quarkus</text>
  </g>
</svg>